<?xml version="1.0" encoding="UTF-8"?>
<svg xmlns="http://www.w3.org/2000/svg" xmlns:xlink="http://www.w3.org/1999/xlink" width="220.392pt" height="124.858pt" viewBox="0 0 220.392 124.858" version="1.2">
<defs>
<g>
<symbol overflow="visible" id="glyph0-0">
<path style="stroke:none;" d="M 7.578125 2.15625 L 7.578125 -10 L 0.125 -10 L 0.125 2.15625 Z M 6.921875 1.484375 L 0.78125 1.484375 L 0.78125 -9.34375 L 6.921875 -9.34375 Z M 4.078125 -2.171875 L 4.078125 -2.375 C 4.078125 -3.75 6.125 -4.75 6.125 -6.625 C 6.125 -7.953125 5.015625 -8.515625 3.765625 -8.515625 C 2.484375 -8.515625 1.609375 -7.796875 1.609375 -6.765625 C 1.609375 -6.15625 1.84375 -5.875 2.25 -5.875 C 2.5625 -5.875 2.828125 -6.03125 2.828125 -6.4375 C 2.828125 -6.921875 2.5625 -6.921875 2.5625 -7.34375 C 2.5625 -7.75 2.90625 -8.03125 3.65625 -8.03125 C 4.46875 -8.03125 4.984375 -7.59375 4.984375 -6.578125 C 4.984375 -4.625 3.5625 -4.15625 3.5625 -2.5 L 3.5625 -2.171875 Z M 4.5625 -0.609375 C 4.5625 -1 4.296875 -1.359375 3.84375 -1.359375 C 3.375 -1.359375 3.09375 -1.015625 3.09375 -0.609375 C 3.09375 -0.1875 3.34375 0.109375 3.828125 0.109375 C 4.296875 0.109375 4.5625 -0.203125 4.5625 -0.609375 Z M 4.5625 -0.609375 "/>
</symbol>
<symbol overflow="visible" id="glyph0-1">
<path style="stroke:none;" d="M 5.265625 -4.4375 C 6.46875 -4.71875 7.484375 -5.34375 7.484375 -6.71875 C 7.484375 -7.640625 6.875 -8.359375 4.71875 -8.359375 L 1.5 -8.359375 L 1.421875 -7.984375 C 2.375 -7.984375 2.609375 -7.84375 2.390625 -6.828125 L 1.3125 -1.59375 C 1.09375 -0.53125 0.875 -0.375 -0.09375 -0.375 L -0.171875 0 L 3.5 0 C 5.5 0 7.078125 -0.921875 7.078125 -2.640625 C 7.078125 -3.703125 6.25 -4.234375 5.265625 -4.375 Z M 2.96875 -4.09375 L 3.71875 -4.09375 C 4.78125 -4.09375 5.765625 -3.765625 5.765625 -2.59375 C 5.765625 -0.71875 4.171875 -0.453125 3.015625 -0.453125 C 2.703125 -0.453125 2.53125 -0.46875 2.234375 -0.5 Z M 3.0625 -4.609375 L 3.734375 -7.84375 C 4 -7.875 4.109375 -7.875 4.375 -7.875 C 5.796875 -7.875 6.234375 -7.328125 6.234375 -6.640625 C 6.234375 -5.375 5.5625 -4.609375 3.8125 -4.609375 Z M 3.0625 -4.609375 "/>
</symbol>
<symbol overflow="visible" id="glyph0-2">
<path style="stroke:none;" d="M 7.21875 -1.84375 C 6.375 -1.0625 5.46875 -0.6875 4.484375 -0.6875 C 2.796875 -0.6875 2.015625 -1.59375 2.015625 -3.296875 C 2.015625 -6.09375 3.671875 -7.984375 5.625 -7.984375 C 6.890625 -7.984375 7.625 -7.296875 7.5625 -5.609375 L 7.984375 -5.609375 L 8.578125 -8.515625 L 8.21875 -8.515625 C 8.015625 -8.234375 7.875 -8.0625 7.671875 -8.0625 C 7.359375 -8.0625 7.03125 -8.53125 5.75 -8.53125 C 3.15625 -8.53125 0.765625 -6.5625 0.765625 -2.984375 C 0.765625 -1.296875 1.578125 0.140625 3.890625 0.140625 C 5.484375 0.140625 6.578125 -0.578125 7.453125 -1.609375 Z M 7.21875 -1.84375 "/>
</symbol>
<symbol overflow="visible" id="glyph0-3">
<path style="stroke:none;" d="M 1.5 -8.359375 L 1.421875 -7.984375 C 2.34375 -7.984375 2.59375 -7.84375 2.421875 -6.921875 L 1.3125 -1.578125 C 1.109375 -0.546875 0.875 -0.375 -0.09375 -0.375 L -0.171875 0 L 3.0625 0 C 6.3125 0 8.65625 -1.46875 8.65625 -5.0625 C 8.65625 -7.0625 7.46875 -8.359375 4.8125 -8.359375 Z M 3.75 -7.8125 C 3.96875 -7.84375 4.09375 -7.859375 4.296875 -7.859375 C 6.8125 -7.859375 7.390625 -6.5 7.390625 -4.953125 C 7.390625 -1.8125 5.8125 -0.5 3.0625 -0.5 C 2.734375 -0.5 2.484375 -0.5 2.234375 -0.53125 Z M 3.75 -7.8125 "/>
</symbol>
<symbol overflow="visible" id="glyph0-4">
<path style="stroke:none;" d="M 8.171875 0 L 8.25 -0.375 C 7.484375 -0.375 7.3125 -0.671875 7.140625 -1.515625 L 6.140625 -8.421875 L 5.609375 -8.421875 L 1.203125 -2.03125 C 0.234375 -0.578125 0 -0.375 -0.703125 -0.375 L -0.796875 0 L 1.875 0 L 1.96875 -0.375 C 1.40625 -0.375 1.21875 -0.453125 1.21875 -0.71875 C 1.21875 -0.96875 1.359375 -1.203125 1.546875 -1.4375 L 2.4375 -2.78125 L 5.71875 -2.78125 L 5.84375 -1.640625 C 5.859375 -1.484375 5.875 -1.3125 5.875 -1.109375 C 5.875 -0.46875 5.46875 -0.375 4.859375 -0.375 L 4.78125 0 Z M 5.671875 -3.296875 L 2.734375 -3.296875 L 5.203125 -6.984375 L 5.25 -6.984375 Z M 5.671875 -3.296875 "/>
</symbol>
<symbol overflow="visible" id="glyph0-5">
<path style="stroke:none;" d="M 6.71875 -1.421875 C 6.53125 -1.1875 6.234375 -0.765625 5.765625 -0.765625 C 5.609375 -0.765625 5.53125 -0.859375 5.53125 -1 C 5.53125 -1.15625 5.578125 -1.3125 5.578125 -1.3125 L 6.296875 -4.25 C 6.328125 -4.4375 6.40625 -4.859375 6.40625 -5.203125 C 6.40625 -5.65625 6.21875 -6.09375 5.5625 -6.09375 C 4.0625 -6.09375 2.890625 -4.25 2.359375 -3.296875 L 2.25 -3.296875 L 3.546875 -8.984375 L 3.25 -8.984375 L 1.484375 -8.84375 L 1.484375 -8.5 C 1.484375 -8.5 1.75 -8.53125 1.90625 -8.53125 C 2.203125 -8.53125 2.3125 -8.40625 2.3125 -8.203125 C 2.3125 -8.015625 2.28125 -7.765625 2.28125 -7.765625 L 0.59375 0 L 1.640625 0 L 2.09375 -2.015625 C 2.515625 -2.890625 3.984375 -5.1875 4.921875 -5.1875 C 5.21875 -5.1875 5.3125 -4.96875 5.3125 -4.671875 C 5.3125 -4.421875 5.21875 -4.0625 5.21875 -4.0625 L 4.46875 -1.125 C 4.4375 -1.0625 4.40625 -0.828125 4.40625 -0.625 C 4.40625 -0.234375 4.59375 0.125 5.234375 0.125 C 6.15625 0.125 6.65625 -0.765625 6.984375 -1.234375 Z M 6.71875 -1.421875 "/>
</symbol>
<symbol overflow="visible" id="glyph0-6">
<path style="stroke:none;" d="M 3.796875 0 L 3.796875 -0.515625 C 2.953125 -0.515625 2.890625 -0.71875 2.890625 -1.421875 L 2.890625 -4.390625 C 3.25 -4.734375 3.6875 -4.953125 4.171875 -4.953125 C 4.796875 -4.953125 5.15625 -4.609375 5.15625 -3.40625 L 5.15625 -1.421875 C 5.15625 -0.71875 5.0625 -0.515625 4.3125 -0.515625 L 4.3125 0 L 7.8125 0 L 7.8125 -0.515625 C 7.078125 -0.515625 6.9375 -0.71875 6.9375 -1.421875 L 6.9375 -3.6875 C 6.9375 -5.375 6.203125 -6.171875 4.96875 -6.171875 C 4.09375 -6.171875 3.546875 -5.734375 2.90625 -5.09375 L 2.859375 -5.09375 L 2.859375 -6.140625 L 2.1875 -6.140625 L 0.234375 -5.765625 L 0.234375 -5.25 C 0.234375 -5.25 0.359375 -5.265625 0.578125 -5.265625 C 0.921875 -5.265625 1.09375 -5.171875 1.09375 -4.703125 L 1.09375 -1.421875 C 1.09375 -0.71875 1.0625 -0.515625 0.21875 -0.515625 L 0.21875 0 Z M 3.796875 0 "/>
</symbol>
<symbol overflow="visible" id="glyph0-7">
<path style="stroke:none;" d="M 1.53125 -0.90625 C 1.53125 -0.3125 1.796875 0.109375 2.375 0.109375 C 3.640625 0.109375 4.09375 -0.828125 4.546875 -1.4375 L 4.234375 -1.671875 C 4.03125 -1.5 3.84375 -1.203125 3.203125 -1.203125 C 2.3125 -1.203125 2.8125 -2.78125 3.4375 -4.515625 C 3.953125 -4.5 4.171875 -4.46875 4.375 -4.46875 C 5.390625 -4.46875 5.671875 -5.46875 5.796875 -5.875 L 5.671875 -6.03125 C 5.28125 -6 4.953125 -5.953125 4.515625 -5.953125 C 3.984375 -5.953125 3.375 -6.015625 2.765625 -6.015625 C 1.6875 -6.015625 0.734375 -5.234375 0.1875 -4.109375 L 0.53125 -3.890625 C 0.96875 -4.40625 1.21875 -4.546875 2.078125 -4.546875 C 2.265625 -4.5625 2.4375 -4.546875 2.671875 -4.53125 C 2.71875 -4.53125 2.734375 -4.53125 2.78125 -4.53125 C 1.96875 -2.78125 1.53125 -1.765625 1.53125 -0.90625 Z M 1.53125 -0.90625 "/>
</symbol>
</g>
<clipPath id="clip1">
  <path d="M 56 10 L 220.089844 10 L 220.089844 75 L 56 75 Z M 56 10 "/>
</clipPath>
<clipPath id="clip2">
  <path d="M 134 46 L 220.089844 46 L 220.089844 124.785156 L 134 124.785156 Z M 134 46 "/>
</clipPath>
<clipPath id="clip3">
  <path d="M 0 86 L 164 86 L 164 124.785156 L 0 124.785156 Z M 0 86 "/>
</clipPath>
<clipPath id="clip4">
  <path d="M 0 25 L 149 25 L 149 124.785156 L 0 124.785156 Z M 0 25 "/>
</clipPath>
<clipPath id="clip5">
  <path d="M 71 25 L 220 25 L 220 124.785156 L 71 124.785156 Z M 71 25 "/>
</clipPath>
</defs>
<g id="surface1">
<path style="fill:none;stroke-width:0.99628;stroke-linecap:butt;stroke-linejoin:miter;stroke:rgb(100%,0%,0%);stroke-opacity:1;stroke-dasharray:2.98883,2.98883;stroke-miterlimit:10;" d="M 42.518656 -28.347875 L 42.518656 -45.355687 L -42.520406 -17.008031 L -42.520406 -0.00021875 " transform="matrix(1,0,0,-1,106.454,53.449)"/>
<path style="fill:none;stroke-width:1.59404;stroke-linecap:butt;stroke-linejoin:miter;stroke:rgb(100%,0%,0%);stroke-opacity:1;stroke-miterlimit:10;" d="M -10.528219 -27.617406 L -8.918844 -28.140844 " transform="matrix(1,0,0,-1,106.454,53.449)"/>
<path style=" stroke:none;fill-rule:nonzero;fill:rgb(100%,0%,0%);fill-opacity:1;" d="M 89.445312 78.960938 C 91.25 79.945312 94.019531 82.039062 95.769531 84 L 97.523438 78.601562 C 94.953125 79.160156 91.484375 79.226562 89.445312 78.960938 "/>
<path style="fill:none;stroke-width:0.99628;stroke-linecap:butt;stroke-linejoin:miter;stroke:rgb(0%,0%,0%);stroke-opacity:0.5;stroke-miterlimit:10;" d="M -106.301656 -49.605687 C -87.457906 -13.058812 -70.024313 6.116969 -35.434469 28.347438 " transform="matrix(1,0,0,-1,106.454,53.449)"/>
<g clip-path="url(#clip1)" clip-rule="nonzero">
<path style="fill:none;stroke-width:0.99628;stroke-linecap:butt;stroke-linejoin:miter;stroke:rgb(0%,0%,0%);stroke-opacity:0.5;stroke-miterlimit:10;" d="M -35.434469 28.347438 C 9.292094 29.601344 74.026469 14.187281 113.385844 -7.086156 " transform="matrix(1,0,0,-1,106.454,53.449)"/>
</g>
<g clip-path="url(#clip2)" clip-rule="nonzero">
<path style="fill:none;stroke-width:0.99628;stroke-linecap:butt;stroke-linejoin:miter;stroke:rgb(0%,0%,0%);stroke-opacity:0.5;stroke-miterlimit:10;" d="M 113.385844 -7.086156 C 77.01475 -14.808812 54.018656 -35.504125 42.518656 -70.867406 " transform="matrix(1,0,0,-1,106.454,53.449)"/>
</g>
<g clip-path="url(#clip3)" clip-rule="nonzero">
<path style="fill:none;stroke-width:0.99628;stroke-linecap:butt;stroke-linejoin:miter;stroke:rgb(0%,0%,0%);stroke-opacity:0.5;stroke-miterlimit:10;" d="M 42.518656 -70.867406 C -11.477438 -47.801 -48.004781 -42.58225 -106.301656 -49.605687 " transform="matrix(1,0,0,-1,106.454,53.449)"/>
</g>
<g clip-path="url(#clip4)" clip-rule="nonzero">
<path style=" stroke:none;fill-rule:nonzero;fill:rgb(89.99939%,89.99939%,89.99939%);fill-opacity:0.5;" d="M 0.152344 103.054688 C 18.996094 66.507812 36.429688 47.332031 71.019531 25.101562 L 148.972656 124.316406 C 94.976562 101.25 58.449219 96.03125 0.152344 103.054688 Z M 0.152344 103.054688 "/>
</g>
<g clip-path="url(#clip5)" clip-rule="nonzero">
<path style=" stroke:none;fill-rule:nonzero;fill:rgb(89.99939%,89.99939%,89.99939%);fill-opacity:0.5;" d="M 71.019531 25.101562 C 115.746094 23.847656 180.480469 39.261719 219.839844 60.535156 C 183.46875 68.257812 160.472656 88.953125 148.972656 124.316406 Z M 71.019531 25.101562 "/>
</g>
<path style="fill:none;stroke-width:0.99628;stroke-linecap:butt;stroke-linejoin:miter;stroke:rgb(100%,0%,0%);stroke-opacity:1;stroke-miterlimit:10;" d="M -42.520406 -0.00021875 L -42.520406 17.007594 L 42.518656 -11.340062 L 42.518656 -28.347875 " transform="matrix(1,0,0,-1,106.454,53.449)"/>
<path style="fill:none;stroke-width:0.99628;stroke-linecap:butt;stroke-linejoin:miter;stroke:rgb(100%,0%,0%);stroke-opacity:0.1;stroke-dasharray:4.98138,4.98138;stroke-miterlimit:10;" d="M -42.520406 -0.00021875 L 42.518656 -28.347875 " transform="matrix(1,0,0,-1,106.454,53.449)"/>
<path style="fill:none;stroke-width:1.59404;stroke-linecap:butt;stroke-linejoin:miter;stroke:rgb(100%,0%,0%);stroke-opacity:1;stroke-miterlimit:10;" d="M -0.000875 2.835719 L 1.6085 2.312281 " transform="matrix(1,0,0,-1,106.454,53.449)"/>
<path style=" stroke:none;fill-rule:nonzero;fill:rgb(100%,0%,0%);fill-opacity:1;" d="M 114.542969 53.242188 C 112.738281 52.257812 109.96875 50.164062 108.21875 48.203125 L 106.464844 53.601562 C 109.03125 53.042969 112.503906 52.976562 114.542969 53.242188 "/>
<g style="fill:rgb(0%,0%,0%);fill-opacity:1;">
  <use xlink:href="#glyph0-1" x="59.969" y="32.622"/>
</g>
<g style="fill:rgb(0%,0%,0%);fill-opacity:1;">
  <use xlink:href="#glyph0-2" x="144.481" y="60.828"/>
</g>
<g style="fill:rgb(0%,0%,0%);fill-opacity:1;">
  <use xlink:href="#glyph0-3" x="144.379" y="110.983"/>
</g>
<g style="fill:rgb(0%,0%,0%);fill-opacity:1;">
  <use xlink:href="#glyph0-4" x="59.6" y="82.688"/>
</g>
<path style="fill:none;stroke-width:0.99628;stroke-linecap:butt;stroke-linejoin:miter;stroke:rgb(0%,0%,0%);stroke-opacity:1;stroke-miterlimit:10;" d="M 48.190531 -28.347875 L 48.190531 -12.086156 " transform="matrix(1,0,0,-1,106.454,53.449)"/>
<path style="fill:none;stroke-width:0.99628;stroke-linecap:butt;stroke-linejoin:miter;stroke:rgb(0%,0%,0%);stroke-opacity:1;stroke-miterlimit:10;" d="M 0.00054375 3.48722 L 0.00054375 -3.485436 " transform="matrix(0,-1,-1,0,154.64347,65.2857)"/>
<path style="fill:none;stroke-width:0.99628;stroke-linecap:butt;stroke-linejoin:miter;stroke:rgb(0%,0%,0%);stroke-opacity:1;stroke-miterlimit:10;" d="M 48.190531 -28.347875 L 48.190531 -44.609594 " transform="matrix(1,0,0,-1,106.454,53.449)"/>
<path style="fill:none;stroke-width:0.99628;stroke-linecap:butt;stroke-linejoin:miter;stroke:rgb(0%,0%,0%);stroke-opacity:1;stroke-miterlimit:10;" d="M -0.0012325 3.485436 L -0.0012325 -3.48722 " transform="matrix(0,1,1,0,154.64347,98.30592)"/>
<g style="fill:rgb(0%,0%,0%);fill-opacity:1;">
  <use xlink:href="#glyph0-5" x="158.461" y="86.224"/>
</g>
<path style="fill:none;stroke-width:0.99628;stroke-linecap:butt;stroke-linejoin:miter;stroke:rgb(0%,0%,0%);stroke-opacity:1;stroke-miterlimit:10;" d="M 21.260844 14.171656 L 21.260844 37.320094 " transform="matrix(1,0,0,-1,106.454,53.449)"/>
<path style=" stroke:none;fill-rule:nonzero;fill:rgb(0%,0%,0%);fill-opacity:1;" d="M 127.714844 10.929688 C 127.425781 12.46875 126.558594 14.972656 125.546875 16.707031 L 129.882812 16.707031 C 128.871094 14.972656 128.003906 12.46875 127.714844 10.929688 "/>
<g style="fill:rgb(0%,0%,0%);fill-opacity:1;">
  <use xlink:href="#glyph0-6" x="123.698" y="7.11"/>
</g>
<path style="fill:none;stroke-width:0.99628;stroke-linecap:butt;stroke-linejoin:miter;stroke:rgb(0%,0%,0%);stroke-opacity:1;stroke-miterlimit:10;" d="M 21.260844 14.171656 L 43.272562 7.019313 " transform="matrix(1,0,0,-1,106.454,53.449)"/>
<path style=" stroke:none;fill-rule:nonzero;fill:rgb(0%,0%,0%);fill-opacity:1;" d="M 154.671875 48.035156 C 153.296875 47.285156 151.183594 45.6875 149.847656 44.1875 L 148.507812 48.3125 C 150.46875 47.882812 153.117188 47.832031 154.671875 48.035156 "/>
<g style="fill:rgb(0%,0%,0%);fill-opacity:1;">
  <use xlink:href="#glyph0-7" x="158.491" y="51"/>
</g>
</g>
</svg>
