<?xml version="1.0" encoding="UTF-8"?>
<svg xmlns="http://www.w3.org/2000/svg" xmlns:xlink="http://www.w3.org/1999/xlink" width="254.064pt" height="86.464pt" viewBox="0 0 254.064 86.464" version="1.2">
<defs>
<g>
<symbol overflow="visible" id="glyph0-0">
<path style="stroke:none;" d="M 7.578125 2.15625 L 7.578125 -10 L 0.125 -10 L 0.125 2.15625 Z M 6.921875 1.484375 L 0.78125 1.484375 L 0.78125 -9.34375 L 6.921875 -9.34375 Z M 4.078125 -2.171875 L 4.078125 -2.375 C 4.078125 -3.75 6.125 -4.75 6.125 -6.625 C 6.125 -7.953125 5.015625 -8.515625 3.765625 -8.515625 C 2.484375 -8.515625 1.609375 -7.796875 1.609375 -6.765625 C 1.609375 -6.15625 1.84375 -5.875 2.25 -5.875 C 2.5625 -5.875 2.828125 -6.03125 2.828125 -6.4375 C 2.828125 -6.921875 2.5625 -6.921875 2.5625 -7.34375 C 2.5625 -7.75 2.90625 -8.03125 3.65625 -8.03125 C 4.46875 -8.03125 4.984375 -7.59375 4.984375 -6.578125 C 4.984375 -4.625 3.5625 -4.15625 3.5625 -2.5 L 3.5625 -2.171875 Z M 4.5625 -0.609375 C 4.5625 -1 4.296875 -1.359375 3.84375 -1.359375 C 3.375 -1.359375 3.09375 -1.015625 3.09375 -0.609375 C 3.09375 -0.1875 3.34375 0.109375 3.828125 0.109375 C 4.296875 0.109375 4.5625 -0.203125 4.5625 -0.609375 Z M 4.5625 -0.609375 "/>
</symbol>
<symbol overflow="visible" id="glyph0-1">
<path style="stroke:none;" d="M 6.4375 -6.015625 L 6.859375 -8.5 L 6.5625 -8.5 C 6.4375 -8.21875 6.28125 -8.125 6.0625 -8.125 C 5.78125 -8.125 5.484375 -8.5 4.375 -8.5 C 2.953125 -8.5 1.609375 -7.6875 1.609375 -6.21875 C 1.609375 -5.046875 2.3125 -4.5625 3.140625 -4.03125 C 3.15625 -4.03125 3.15625 -4.015625 3.171875 -4.015625 C 4.0625 -3.4375 4.890625 -2.921875 4.875 -1.828125 C 4.859375 -0.859375 4.09375 -0.375 3.03125 -0.375 C 1.75 -0.375 1.3125 -0.796875 1.203125 -2.5625 L 0.84375 -2.5625 L 0.3125 0.1875 L 0.6875 0.1875 C 0.734375 -0.0625 0.921875 -0.234375 1.109375 -0.234375 C 1.40625 -0.234375 1.78125 0.15625 3.109375 0.15625 C 4.6875 0.15625 6.0625 -0.8125 6.0625 -2.4375 C 6.0625 -3.65625 5.15625 -4.171875 4.234375 -4.78125 C 3.40625 -5.28125 2.6875 -5.8125 2.6875 -6.578125 C 2.6875 -7.5 3.3125 -8.03125 4.375 -8.03125 C 5.65625 -8.03125 6.015625 -7.421875 6.0625 -6.015625 Z M 6.4375 -6.015625 "/>
</symbol>
<symbol overflow="visible" id="glyph1-0">
<path style="stroke:none;" d="M 5.296875 1.5 L 5.296875 -6.984375 L 0.09375 -6.984375 L 0.09375 1.5 Z M 4.84375 1.03125 L 0.546875 1.03125 L 0.546875 -6.53125 L 4.84375 -6.53125 Z M 2.84375 -1.515625 L 2.84375 -1.65625 C 2.84375 -2.625 4.28125 -3.328125 4.28125 -4.625 C 4.28125 -5.5625 3.515625 -5.953125 2.640625 -5.953125 C 1.734375 -5.953125 1.125 -5.453125 1.125 -4.734375 C 1.125 -4.3125 1.296875 -4.109375 1.578125 -4.109375 C 1.796875 -4.109375 1.984375 -4.21875 1.984375 -4.5 C 1.984375 -4.84375 1.796875 -4.84375 1.796875 -5.140625 C 1.796875 -5.421875 2.03125 -5.625 2.5625 -5.625 C 3.125 -5.625 3.484375 -5.3125 3.484375 -4.609375 C 3.484375 -3.234375 2.5 -2.90625 2.5 -1.75 L 2.5 -1.515625 Z M 3.1875 -0.421875 C 3.1875 -0.703125 3 -0.953125 2.6875 -0.953125 C 2.359375 -0.953125 2.171875 -0.71875 2.171875 -0.421875 C 2.171875 -0.140625 2.328125 0.078125 2.6875 0.078125 C 3 0.078125 3.1875 -0.140625 3.1875 -0.421875 Z M 3.1875 -0.421875 "/>
</symbol>
<symbol overflow="visible" id="glyph1-1">
<path style="stroke:none;" d="M 3.84375 0 L 3.84375 -0.328125 C 3.03125 -0.328125 2.78125 -0.46875 2.78125 -0.921875 L 2.78125 -5.9375 L 2.390625 -5.9375 L 0.75 -5.484375 L 0.75 -5.125 C 0.984375 -5.1875 1.375 -5.25 1.5625 -5.25 C 1.8125 -5.25 1.890625 -5.125 1.890625 -4.796875 L 1.890625 -0.921875 C 1.890625 -0.46875 1.6875 -0.328125 0.828125 -0.328125 L 0.828125 0 Z M 3.84375 0 "/>
</symbol>
<symbol overflow="visible" id="glyph1-2">
<path style="stroke:none;" d="M 4.359375 -1.546875 L 4.046875 -1.546875 C 3.8125 -0.96875 3.703125 -0.78125 3.203125 -0.78125 L 2.046875 -0.78125 L 1.34375 -0.734375 L 1.34375 -0.796875 L 2.453125 -1.875 C 3.453125 -2.84375 4.0625 -3.5 4.0625 -4.375 C 4.0625 -5.375 3.3125 -5.96875 2.25 -5.96875 C 1.34375 -5.96875 0.703125 -5.46875 0.40625 -4.640625 L 0.65625 -4.53125 C 0.984375 -5.109375 1.390625 -5.34375 2.03125 -5.34375 C 2.71875 -5.34375 3.140625 -4.890625 3.140625 -4.25 C 3.140625 -3.25 2.65625 -2.71875 1.671875 -1.71875 L 0.40625 -0.4375 L 0.40625 0 L 4.046875 0 Z M 4.359375 -1.546875 "/>
</symbol>
<symbol overflow="visible" id="glyph1-3">
<path style="stroke:none;" d="M 0.75 -4.625 C 1.046875 -5.109375 1.4375 -5.34375 1.953125 -5.34375 C 2.515625 -5.34375 2.921875 -5.046875 2.921875 -4.5 C 2.921875 -3.75 2.234375 -3.28125 1.609375 -3.28125 L 1.421875 -3.28125 L 1.421875 -2.875 L 1.609375 -2.875 C 2.53125 -2.875 3.296875 -2.34375 3.296875 -1.546875 C 3.296875 -0.609375 2.671875 -0.375 2.140625 -0.375 C 1.890625 -0.375 1.796875 -0.421875 1.390625 -0.609375 C 1.0625 -0.796875 0.984375 -0.859375 0.859375 -0.859375 C 0.578125 -0.859375 0.46875 -0.609375 0.46875 -0.40625 C 0.46875 -0.15625 0.671875 0.109375 1.53125 0.109375 C 2.890625 0.109375 4.125 -0.46875 4.125 -1.796875 C 4.125 -2.65625 3.5 -3.140625 2.75 -3.328125 L 2.75 -3.375 C 3.328125 -3.75 3.78125 -4.09375 3.78125 -4.734375 C 3.78125 -5.453125 3.140625 -5.96875 2.1875 -5.96875 C 1.453125 -5.96875 0.84375 -5.5625 0.484375 -4.75 Z M 0.75 -4.625 "/>
</symbol>
</g>
<clipPath id="clip1">
  <path d="M 0 0 L 253.597656 0 L 253.597656 2 L 0 2 Z M 0 0 "/>
</clipPath>
<clipPath id="clip2">
  <path d="M 0 85 L 253.597656 85 L 253.597656 86.195312 L 0 86.195312 Z M 0 85 "/>
</clipPath>
<clipPath id="clip3">
  <path d="M 4 0 L 38 0 L 38 86.195312 L 4 86.195312 Z M 4 0 "/>
</clipPath>
<clipPath id="clip4">
  <path d="M 15 0 L 75 0 L 75 86.195312 L 15 86.195312 Z M 15 0 "/>
</clipPath>
<clipPath id="clip5">
  <path d="M 15 0 L 126 0 L 126 86.195312 L 15 86.195312 Z M 15 0 "/>
</clipPath>
<clipPath id="clip6">
  <path d="M 174 0 L 208 0 L 208 86.195312 L 174 86.195312 Z M 174 0 "/>
</clipPath>
<clipPath id="clip7">
  <path d="M 185 0 L 245 0 L 245 86.195312 L 185 86.195312 Z M 185 0 "/>
</clipPath>
</defs>
<g id="surface1">
<g clip-path="url(#clip1)" clip-rule="nonzero">
<path style="fill:none;stroke-width:0.3985;stroke-linecap:butt;stroke-linejoin:miter;stroke:rgb(100%,0%,0%);stroke-opacity:1;stroke-dasharray:2.98883,2.98883;stroke-miterlimit:10;" d="M -0.0019375 42.519781 L 255.123063 42.519781 " transform="matrix(1,0,0,-1,-0.459,43.469)"/>
</g>
<g clip-path="url(#clip2)" clip-rule="nonzero">
<path style="fill:none;stroke-width:0.3985;stroke-linecap:butt;stroke-linejoin:miter;stroke:rgb(100%,0%,0%);stroke-opacity:1;stroke-dasharray:2.98883,2.98883;stroke-miterlimit:10;" d="M -0.0019375 -42.519281 L 255.123063 -42.519281 " transform="matrix(1,0,0,-1,-0.459,43.469)"/>
</g>
<g clip-path="url(#clip3)" clip-rule="nonzero">
<path style="fill:none;stroke-width:0.3985;stroke-linecap:butt;stroke-linejoin:miter;stroke:rgb(100%,0%,0%);stroke-opacity:1;stroke-miterlimit:10;" d="M 31.888688 0.00025 C 31.888688 23.484625 27.130875 42.519781 21.259781 42.519781 C 15.388688 42.519781 10.630875 23.484625 10.630875 0.00025 C 10.630875 -23.484125 15.388688 -42.519281 21.259781 -42.519281 C 27.130875 -42.519281 31.888688 -23.484125 31.888688 0.00025 Z M 31.888688 0.00025 " transform="matrix(1,0,0,-1,-0.459,43.469)"/>
</g>
<g clip-path="url(#clip4)" clip-rule="nonzero">
<path style="fill:none;stroke-width:0.3985;stroke-linecap:butt;stroke-linejoin:miter;stroke:rgb(100%,0%,0%);stroke-opacity:1;stroke-miterlimit:10;" d="M 21.259781 42.519781 C 85.326188 25.351812 85.326188 -25.355219 21.259781 -42.519281 " transform="matrix(1,0,0,-1,-0.459,43.469)"/>
</g>
<g style="fill:rgb(100%,0%,0%);fill-opacity:1;">
  <use xlink:href="#glyph0-1" x="53.045" y="46.377"/>
</g>
<g style="fill:rgb(100%,0%,0%);fill-opacity:1;">
  <use xlink:href="#glyph1-1" x="60.287" y="49.05"/>
</g>
<g clip-path="url(#clip5)" clip-rule="nonzero">
<path style="fill:none;stroke-width:0.3985;stroke-linecap:butt;stroke-linejoin:miter;stroke:rgb(100%,0%,0%);stroke-opacity:1;stroke-miterlimit:10;" d="M 21.259781 42.519781 C 153.408219 30.957281 153.408219 -30.956781 21.259781 -42.519281 " transform="matrix(1,0,0,-1,-0.459,43.469)"/>
</g>
<g style="fill:rgb(100%,0%,0%);fill-opacity:1;">
  <use xlink:href="#glyph0-1" x="103.971" y="46.377"/>
</g>
<g style="fill:rgb(100%,0%,0%);fill-opacity:1;">
  <use xlink:href="#glyph1-2" x="111.213" y="49.05"/>
</g>
<g clip-path="url(#clip6)" clip-rule="nonzero">
<path style="fill:none;stroke-width:0.3985;stroke-linecap:butt;stroke-linejoin:miter;stroke:rgb(100%,0%,0%);stroke-opacity:1;stroke-miterlimit:10;" d="M 201.970719 0.00025 C 201.970719 23.484625 197.212906 42.519781 191.341813 42.519781 C 185.470719 42.519781 180.709 23.484625 180.709 0.00025 C 180.709 -23.484125 185.470719 -42.519281 191.341813 -42.519281 C 197.212906 -42.519281 201.970719 -23.484125 201.970719 0.00025 Z M 201.970719 0.00025 " transform="matrix(1,0,0,-1,-0.459,43.469)"/>
</g>
<g clip-path="url(#clip7)" clip-rule="nonzero">
<path style="fill:none;stroke-width:0.3985;stroke-linecap:butt;stroke-linejoin:miter;stroke:rgb(100%,0%,0%);stroke-opacity:1;stroke-miterlimit:10;" d="M 191.341813 42.519781 C 255.408219 25.351812 255.408219 -25.355219 191.341813 -42.519281 " transform="matrix(1,0,0,-1,-0.459,43.469)"/>
</g>
<g style="fill:rgb(100%,0%,0%);fill-opacity:1;">
  <use xlink:href="#glyph0-1" x="222.99" y="46.319"/>
</g>
<g style="fill:rgb(100%,0%,0%);fill-opacity:1;">
  <use xlink:href="#glyph1-3" x="230.232" y="48.992"/>
</g>
</g>
</svg>
